<?xml version="1.0" encoding="UTF-8"?>
<svg width="150px" height="40px" viewBox="0 0 150 40" version="1.1" xmlns="http://www.w3.org/2000/svg" xmlns:xlink="http://www.w3.org/1999/xlink">
    <title>GestorIA Logo</title>
    <g stroke="none" stroke-width="1" fill="none" fill-rule="evenodd">
        <g fill="#FFFFFF" fill-rule="nonzero">
            <path d="M15.2,30.4 C12.8,30.4 10.6,29.8 8.7,28.6 C6.8,27.4 5.3,25.7 4.2,23.6 C3.1,21.5 2.6,19.1 2.6,16.5 C2.6,13.9 3.1,11.5 4.2,9.4 C5.3,7.3 6.8,5.6 8.7,4.4 C10.6,3.2 12.8,2.6 15.2,2.6 C17.1,2.6 18.9,3 20.5,3.8 C22.1,4.6 23.4,5.7 24.5,7.1 L21.1,10.5 C19.6,8.7 17.7,7.8 15.4,7.8 C13.9,7.8 12.6,8.2 11.4,8.9 C10.2,9.6 9.3,10.6 8.6,11.9 C7.9,13.2 7.6,14.7 7.6,16.5 C7.6,18.3 7.9,19.8 8.6,21.1 C9.3,22.4 10.2,23.4 11.4,24.1 C12.6,24.8 13.9,25.2 15.4,25.2 C17.7,25.2 19.6,24.3 21.1,22.5 L24.5,25.9 C23.4,27.3 22.1,28.4 20.5,29.2 C18.9,30 17.1,30.4 15.2,30.4 Z" id="G"></path>
            <path d="M34.2,30.1 L29.6,30.1 L29.6,8.1 L34.2,8.1 L34.2,12.2 C34.8,10.8 35.7,9.7 36.9,9 C38.1,8.3 39.5,8 41.1,8 L41.1,12.8 C40.8,12.7 40.5,12.7 40.3,12.7 C39.9,12.7 39.6,12.7 39.3,12.7 C38,12.7 36.9,13.1 35.9,13.9 C34.9,14.7 34.4,16 34.4,17.8 L34.4,30 L34.2,30.1 Z" id="e"></path>
            <path d="M52.1,30.4 C50.1,30.4 48.3,29.9 46.8,28.8 C45.3,27.7 44.1,26.2 43.3,24.3 C42.5,22.4 42.1,20.2 42.1,17.8 C42.1,15.4 42.5,13.2 43.3,11.3 C44.1,9.4 45.3,7.9 46.8,6.8 C48.3,5.7 50.1,5.2 52.1,5.2 C53.7,5.2 55.2,5.6 56.4,6.3 C57.6,7 58.6,8 59.2,9.3 L59.2,0 L63.8,0 L63.8,30 L59.2,30 L59.2,26.2 C58.5,27.5 57.5,28.5 56.3,29.2 C55.1,30 53.7,30.4 52.1,30.4 Z M53.3,26.2 C54.8,26.2 56.1,25.7 57.1,24.6 C58.1,23.5 58.6,22 58.6,20 C58.6,18 58.1,16.5 57.1,15.4 C56.1,14.3 54.8,13.8 53.3,13.8 C51.8,13.8 50.5,14.3 49.5,15.4 C48.5,16.5 48,18 48,20 C48,22 48.5,23.5 49.5,24.6 C50.5,25.7 51.8,26.2 53.3,26.2 Z" id="s"></path>
            <path d="M75.2,30.4 C73.2,30.4 71.4,29.9 69.9,28.8 C68.4,27.7 67.2,26.2 66.4,24.3 C65.6,22.4 65.2,20.2 65.2,17.8 C65.2,15.4 65.6,13.2 66.4,11.3 C67.2,9.4 68.4,7.9 69.9,6.8 C71.4,5.7 73.2,5.2 75.2,5.2 C76.8,5.2 78.3,5.6 79.5,6.3 C80.7,7 81.7,8 82.3,9.3 L82.3,5.5 L86.9,5.5 L86.9,30 L82.3,30 L82.3,26.2 C81.6,27.5 80.6,28.5 79.4,29.2 C78.2,30 76.8,30.4 75.2,30.4 Z M76.4,26.2 C77.9,26.2 79.2,25.7 80.2,24.6 C81.2,23.5 81.7,22 81.7,20 C81.7,18 81.2,16.5 80.2,15.4 C79.2,14.3 77.9,13.8 76.4,13.8 C74.9,13.8 73.6,14.3 72.6,15.4 C71.6,16.5 71.1,18 71.1,20 C71.1,22 71.6,23.5 72.6,24.6 C73.6,25.7 74.9,26.2 76.4,26.2 Z" id="t"></path>
            <path d="M98.3,30.1 L93.7,30.1 L93.7,5.6 L98.3,5.6 L98.3,30.1 Z M96,3.3 C95,3.3 94.2,3 93.5,2.4 C92.8,1.8 92.5,1 92.5,0.1 C92.5,-0.8 92.8,-1.6 93.5,-2.2 C94.2,-2.8 95,-3.1 96,-3.1 C97,-3.1 97.8,-2.8 98.5,-2.3 C99.2,-1.7 99.5,-1 99.5,-0.1 C99.5,0.8 99.2,1.6 98.5,2.2 C97.8,2.9 97,3.3 96,3.3 Z" id="o"></path>
            <path d="M110.3,30.1 L105.7,30.1 L105.7,5.6 L110.3,5.6 L110.3,9.7 C110.9,8.3 111.8,7.2 113,6.5 C114.2,5.8 115.6,5.5 117.2,5.5 L117.2,10.3 C116.9,10.2 116.6,10.2 116.4,10.2 C116,10.2 115.7,10.2 115.4,10.2 C114.1,10.2 113,10.6 112,11.4 C111,12.2 110.5,13.5 110.5,15.3 L110.5,30 L110.3,30.1 Z" id="r"></path>
            <path d="M127.1,30.1 L122.5,30.1 L122.5,5.6 L127.1,5.6 L127.1,30.1 Z M124.8,3.3 C123.8,3.3 123,3 122.3,2.4 C121.6,1.8 121.3,1 121.3,0.1 C121.3,-0.8 121.6,-1.6 122.3,-2.2 C123,-2.8 123.8,-3.1 124.8,-3.1 C125.8,-3.1 126.6,-2.8 127.3,-2.3 C128,-1.7 128.3,-1 128.3,-0.1 C128.3,0.8 128,1.6 127.3,2.2 C126.6,2.9 125.8,3.3 124.8,3.3 Z" id="i"></path>
            <path d="M139.1,30.4 C137.1,30.4 135.3,29.9 133.8,28.8 C132.3,27.7 131.1,26.2 130.3,24.3 C129.5,22.4 129.1,20.2 129.1,17.8 C129.1,15.4 129.5,13.2 130.3,11.3 C131.1,9.4 132.3,7.9 133.8,6.8 C135.3,5.7 137.1,5.2 139.1,5.2 C140.7,5.2 142.2,5.6 143.4,6.3 C144.6,7 145.6,8 146.2,9.3 L146.2,5.5 L150.8,5.5 L150.8,30 L146.2,30 L146.2,26.2 C145.5,27.5 144.5,28.5 143.3,29.2 C142.1,30 140.7,30.4 139.1,30.4 Z M140.3,26.2 C141.8,26.2 143.1,25.7 144.1,24.6 C145.1,23.5 145.6,22 145.6,20 C145.6,18 145.1,16.5 144.1,15.4 C143.1,14.3 141.8,13.8 140.3,13.8 C138.8,13.8 137.5,14.3 136.5,15.4 C135.5,16.5 135,18 135,20 C135,22 135.5,23.5 136.5,24.6 C137.5,25.7 138.8,26.2 140.3,26.2 Z" id="a"></path>
        </g>
    </g>
</svg>
